<?xml version="1.0" standalone="no"?><!-- Generator: Gravit.io --><svg xmlns="http://www.w3.org/2000/svg" xmlns:xlink="http://www.w3.org/1999/xlink" style="isolation:isolate" viewBox="-184.09 -232 1648.09 3169.734" width="1648.09" height="3169.734"><defs><clipPath id="_clipPath_HIzr4vQgCXzpepCgVbFXr2tSvnMOAqV4"><rect x="-184.09" y="-232" width="1648.09" height="3169.734"/></clipPath></defs><g clip-path="url(#_clipPath_HIzr4vQgCXzpepCgVbFXr2tSvnMOAqV4)"><g><g><g><path d=" M 1229.662 635.477 C 1229.889 635.469 1230.075 635.409 1230.098 635.471 C 1230.225 635.819 1230.312 636.196 1230.414 636.564 C 1230.282 636.631 1230.043 636.777 1230.035 636.753 C 1229.909 636.401 1229.814 636.027 1229.662 635.477 Z  M 1233.895 632.778 C 1245.088 611.728 1226.631 592.785 1198.629 587.025 C 1170.626 581.265 1136.724 620.788 1141.39 634.548 C 1151.548 664.502 1222.703 653.828 1233.895 632.778 Z " fill-rule="evenodd" fill="rgb(7,114,152)"/><path d=" M 667.815 1784.434 C 668.042 1784.426 668.228 1784.365 668.251 1784.427 C 668.378 1784.775 668.465 1785.152 668.566 1785.52 C 668.435 1785.587 668.196 1785.733 668.188 1785.709 C 668.062 1785.357 667.967 1784.983 667.815 1784.434 Z  M 672.048 1781.734 C 683.241 1760.684 664.784 1741.741 636.781 1735.981 C 608.779 1730.221 574.877 1769.745 579.543 1783.504 C 589.701 1813.458 660.856 1802.784 672.048 1781.734 Z " fill-rule="evenodd" fill="rgb(7,114,152)"/><path d=" M 1103.794 803.215 C 1112.868 804.418 1120.665 808.826 1124.604 816.842 C 1128.418 824.605 1124.344 832.002 1119.453 838.748 C 1114.954 844.954 1110.539 850.436 1102.037 851.213 C 1091.12 852.21 1082.241 844.223 1083.209 833.16 C 1084.055 823.496 1087.495 814.729 1093.415 806.917 C 1096.159 803.297 1099.872 803.47 1103.794 803.215 Z " fill-rule="evenodd" fill="rgb(172,169,61)"/><path d=" M 327.609 1004.241 C 329.305 1000.152 334.492 995.4 338.638 994.868 C 347.716 993.704 356.227 1001.764 355.943 1009.004 C 355.707 1015.042 349.713 1018.586 340.238 1018.29 C 330.763 1017.994 325.6 1009.083 327.609 1004.241 Z " fill-rule="evenodd" fill="rgb(172,169,61)"/><path d=" M 63.701 547.09 C 58.232 546.919 49.063 537.884 51.072 533.041 C 52.768 528.952 57.955 524.2 62.101 523.668 C 71.179 522.504 79.69 530.565 79.406 537.805 C 79.17 543.843 73.176 547.386 63.701 547.09 Z " fill-rule="evenodd" fill="rgb(7,114,152)"/><path d=" M 1228.031 1265.205 C 1241.743 1286.059 1203.072 1316.031 1174.534 1342.675 C 1145.995 1369.32 1081.659 1340.542 1104.708 1314.477 C 1121.667 1295.302 1141.572 1278.055 1162.614 1263.487 C 1171.674 1257.214 1213.12 1242.526 1228.031 1265.205 Z " fill-rule="evenodd" fill="rgb(172,169,61)"/><path d=" M 1222.484 1812.025 C 1224.488 1787.153 1240.318 1765.129 1261.567 1744.665 C 1275.537 1731.211 1290.709 1719.944 1312.735 1714.835 C 1352.372 1705.641 1386.54 1729.49 1377.779 1761.198 C 1369.71 1790.408 1351.673 1815.113 1320.007 1832.842 C 1304.006 1841.801 1285.193 1847.13 1266.309 1848.433 C 1237.945 1850.39 1223.044 1841.093 1222.484 1812.025 Z " fill-rule="evenodd" fill="rgb(172,169,61)"/><path d=" M 579.109 1752.919 C 590.127 1770.598 598.578 1789.052 599.029 1813.329 C 599.839 1857.019 466.168 1754.851 469.015 1734.724 C 473.292 1704.491 486.387 1690.915 517.056 1696.819 C 542.743 1704.48 562.351 1726.027 579.109 1752.919 Z " fill-rule="evenodd" fill="rgb(172,169,61)"/><path d=" M 1456.199 964.953 C 1475.981 996.158 1454.85 1025.897 1429.483 1053.014 C 1406.149 1077.964 1383.254 1100.001 1339.155 1103.123 C 1282.534 1107.13 1236.485 1075.023 1241.504 1030.549 C 1245.892 991.701 1263.733 956.456 1294.441 925.053 C 1308.67 910.501 1327.925 911.196 1348.271 910.172 C 1395.333 915.008 1435.769 932.729 1456.199 964.953 Z " fill-rule="evenodd" fill="rgb(7,114,152)"/><path d=" M 1087.237 623.955 C 1093.692 607.394 1102.109 591.493 1119.059 575.424 C 1149.562 546.507 1189.223 541.396 1194.964 566.294 C 1200.254 589.231 1195.006 615.188 1175.006 644.766 C 1164.898 659.712 1150.827 674.039 1135 685.897 C 1111.227 703.707 1094.395 706.625 1081.682 688.824 C 1072.958 672.14 1077.419 649.147 1087.237 623.955 Z " fill-rule="evenodd" fill="rgb(172,169,61)"/><path d=" M 1195.375 1767.316 C 1195.582 1767.308 1195.752 1767.253 1195.772 1767.31 C 1195.888 1767.627 1195.968 1767.97 1196.06 1768.305 C 1195.94 1768.366 1195.722 1768.499 1195.715 1768.477 C 1195.601 1768.157 1195.514 1767.816 1195.375 1767.316 Z  M 1243.459 1886.654 C 1296.341 1824.802 1243.456 1765.169 1200.275 1750.793 C 1157.095 1736.416 1123.735 1752.902 1105.844 1787.958 C 1093.665 1811.822 1190.576 1948.506 1243.459 1886.654 Z " fill-rule="evenodd" fill="rgb(7,114,152)"/><path d=" M 231.706 1732.549 C 233.826 1727.438 240.309 1721.498 245.492 1720.833 C 256.84 1719.378 267.479 1729.453 267.124 1738.503 C 266.828 1746.051 259.336 1750.48 247.492 1750.11 C 240.656 1749.897 229.194 1738.602 231.706 1732.549 Z " fill-rule="evenodd" fill="rgb(172,169,61)"/><path d=" M 48.043 738.656 C 55.463 753.864 47.537 768.357 38.022 781.573 C 29.271 793.733 20.683 804.473 4.143 805.994 C -17.094 807.948 -34.365 792.3 -32.483 770.625 C -30.837 751.692 -24.145 734.515 -12.628 719.21 C -7.291 712.118 -0.069 712.457 7.562 711.958 C 25.214 714.315 40.38 722.951 48.043 738.656 Z " fill-rule="evenodd" fill="rgb(7,114,152)"/><path d=" M -34.587 1482.442 C -61.475 1512.438 -50.538 1541.802 -40.057 1569.971 C -29.575 1598.139 -19.551 1625.112 -48.267 1650.325 C -80.086 1678.263 -196.066 1580.863 -183.08 1482.44 C -179.422 1454.709 -169.274 1426.522 -154.839 1402.29 C -124.174 1350.817 -56.344 1309.026 -24.284 1353.702 C 2.68 1391.279 19.191 1422.452 -34.587 1482.442 Z " fill-rule="evenodd" fill="rgb(172,169,61)"/><path d=" M 23.388 1633.652 C -5.306 1655.746 -106.174 1584.124 -106.175 1546.694 C -106.176 1519.219 -65.286 1486.502 -30.6 1505.395 C 55.858 1552.487 52.083 1611.557 23.388 1633.652 Z " fill-rule="evenodd" fill="rgb(7,114,152)"/><g><path d=" M 75.154 405.82 C 78.259 418.973 33.433 437.063 7.642 418.655 C 0.375 413.469 -6.047 406.386 -10.713 398.687 C -20.624 382.333 -18.995 355.716 -0.854 354.6 C 21.923 353.198 69.549 382.079 75.154 405.82 Z " fill-rule="evenodd" fill="rgb(172,169,61)"/><path d=" M 19.239 -11.728 C 14.913 -46.949 49.25 -105.522 77.336 -97.778 C 105.422 -90.034 90.813 -61.056 103.206 -36.191 C 110.352 -21.853 136.402 -9.431 145.622 12.041 C 152.65 28.407 150.806 58.15 127.679 72.791 C 104.553 87.431 28.983 67.613 19.239 -11.728 Z " fill-rule="evenodd" fill="rgb(172,169,61)"/><path d=" M 84.876 51.305 C 102.598 75.884 78.771 111.522 48.581 136.058 C 32.895 148.806 12.557 151.477 -6.295 149.075 C -42.399 144.475 -57.997 112.517 -36.98 88.461 C -21.516 70.763 -1.298 89.47 16.975 72.976 C 34.182 57.445 67.155 26.726 84.876 51.305 Z " fill-rule="evenodd" fill="rgb(7,114,152)"/><path d=" M 287.516 -130.818 C 296.105 -117.754 271.88 -98.978 254.002 -82.286 C 236.124 -65.595 195.82 -83.623 210.259 -99.951 C 220.883 -111.964 233.353 -122.768 246.535 -131.894 C 252.21 -135.824 278.174 -145.026 287.516 -130.818 Z " fill-rule="evenodd" fill="rgb(7,114,152)"/><path d=" M 1088.363 -141.328 C 1057.997 -112.977 989.54 -143.598 1014.066 -171.332 C 1032.111 -191.735 1066.994 -236.025 1088.36 -231.705 C 1141.617 -220.938 1118.728 -169.679 1088.363 -141.328 Z " fill-rule="evenodd" fill="rgb(172,169,61)"/></g><path d=" M 1249.767 219.02 C 1250.02 218.912 1250.205 218.763 1250.257 218.823 C 1250.552 219.161 1250.814 219.55 1251.088 219.922 C 1250.969 220.055 1250.762 220.323 1250.742 220.3 C 1250.448 219.957 1250.178 219.575 1249.767 219.02 Z  M 1253.382 214.13 C 1256.901 185.471 1227.811 172.063 1193.648 177.705 C 1159.486 183.346 1138.308 242.749 1149.556 256.281 C 1174.043 285.741 1249.863 242.789 1253.382 214.13 Z " fill-rule="evenodd" fill="rgb(172,169,61)"/><path d=" M 171.69 2628.943 C 171.887 2628.936 172.049 2628.883 172.069 2628.937 C 172.179 2629.24 172.255 2629.568 172.343 2629.887 C 172.229 2629.945 172.021 2630.072 172.014 2630.052 C 171.905 2629.746 171.822 2629.421 171.69 2628.943 Z  M 175.37 2626.596 C 185.099 2608.298 169.056 2591.832 144.714 2586.825 C 120.372 2581.818 90.903 2616.174 94.959 2628.135 C 103.789 2654.173 165.641 2644.894 175.37 2626.596 Z " fill-rule="evenodd" fill="rgb(172,169,61)"/><path d=" M 1069.832 -155.245 C 1097.475 -192.907 1166.968 -173.532 1223 -139.596 C 1252.113 -121.964 1268.341 -92.796 1275.809 -63.539 C 1290.111 -7.508 1249.747 30.339 1199.908 9.889 C 1163.242 -5.158 1180.282 -43.876 1143.816 -63.668 C 1109.477 -82.305 1042.19 -117.583 1069.832 -155.245 Z " fill-rule="evenodd" fill="rgb(7,114,152)"/><path d=" M -51.014 2607.49 C -22.567 2568.731 48.95 2588.671 106.615 2623.595 C 136.575 2641.74 153.276 2671.757 160.961 2701.867 C 175.68 2759.529 134.141 2798.478 82.85 2777.433 C 45.116 2761.948 62.653 2722.102 25.125 2701.734 C -10.215 2682.554 -79.461 2646.248 -51.014 2607.49 Z " fill-rule="evenodd" fill="rgb(7,114,152)"/><path d=" M 955.649 30.302 C 944.013 41.165 917.889 28.275 917.888 9.889 C 917.888 -1.35 918.798 -16.298 926.785 -16.297 C 955.647 -16.297 967.284 19.439 955.649 30.302 Z " fill-rule="evenodd" fill="rgb(172,169,61)"/><path d=" M -23.502 2244.542 C -23.767 2244.532 -23.985 2244.462 -24.012 2244.534 C -24.16 2244.941 -24.262 2245.382 -24.38 2245.811 C -24.227 2245.889 -23.948 2246.06 -23.938 2246.032 C -23.791 2245.621 -23.68 2245.184 -23.502 2244.542 Z  M -28.449 2241.387 C -41.529 2216.788 -19.961 2194.652 12.763 2187.92 C 45.487 2181.189 85.104 2227.376 79.652 2243.455 C 67.781 2278.459 -15.37 2265.986 -28.449 2241.387 Z " fill-rule="evenodd" fill="rgb(172,169,61)"/><path d=" M 1161.936 1490.537 C 1154.344 1491.543 1147.82 1495.232 1144.524 1501.939 C 1141.333 1508.434 1144.742 1514.624 1148.834 1520.268 C 1152.599 1525.461 1156.292 1530.048 1163.407 1530.698 C 1172.542 1531.532 1179.971 1524.849 1179.161 1515.592 C 1178.453 1507.506 1175.575 1500.17 1170.621 1493.634 C 1168.325 1490.605 1165.218 1490.75 1161.936 1490.537 Z " fill-rule="evenodd" fill="rgb(7,114,152)"/><path d=" M 949.112 1022.578 C 962.235 1022.168 984.239 1000.485 979.417 988.865 C 975.346 979.052 962.901 967.649 952.952 966.373 C 931.166 963.579 910.743 982.922 911.424 1000.296 C 911.992 1014.785 926.375 1023.288 949.112 1022.578 Z " fill-rule="evenodd" fill="rgb(7,114,152)"/><path d=" M 987.979 177.701 C 997.353 177.408 1013.069 161.921 1009.626 153.621 C 1006.718 146.612 997.828 138.467 990.722 137.555 C 975.161 135.56 960.572 149.376 961.059 161.786 C 961.465 172.135 971.738 178.209 987.979 177.701 Z " fill-rule="evenodd" fill="rgb(7,114,152)"/><path d=" M 52.745 2272.652 C 72.875 2295.493 100.805 2307.207 128.414 2307.321 C 151.278 2307.414 180.519 2302.155 178.116 2265.983 C 176.757 2245.541 144.326 2244.027 110.447 2215.248 C 76.569 2186.468 58.113 2156.301 46.083 2153.823 C 33.145 2151.157 23.246 2162.341 21.844 2176.935 C 18.893 2207.645 41.035 2259.365 52.745 2272.652 Z " fill-rule="evenodd" fill="rgb(7,114,152)"/><path d=" M 892.721 1572.657 C 892.781 1572.627 892.826 1572.587 892.839 1572.603 C 892.908 1572.692 892.97 1572.794 893.034 1572.892 C 893.005 1572.928 892.954 1573 892.95 1572.994 C 892.88 1572.903 892.817 1572.803 892.721 1572.657 Z  M 893.602 1571.346 C 894.538 1563.725 887.616 1560.259 879.417 1561.868 C 871.218 1563.477 865.954 1579.32 868.603 1582.877 C 874.371 1590.62 892.666 1578.968 893.602 1571.346 Z " fill-rule="evenodd" fill="rgb(172,169,61)"/><path d=" M 1169.016 2142.705 C 1172.854 2150.571 1168.755 2158.067 1163.834 2164.902 C 1159.307 2171.191 1154.866 2176.745 1146.312 2177.532 C 1135.328 2178.543 1126.395 2170.449 1127.368 2159.239 C 1128.22 2149.447 1131.681 2140.563 1137.638 2132.648 C 1140.398 2128.98 1144.133 2129.155 1148.08 2128.897 C 1157.209 2130.116 1165.053 2134.583 1169.016 2142.705 Z " fill-rule="evenodd" fill="rgb(7,114,152)"/><path d=" M 886.067 2857.423 C 892.521 2840.862 900.938 2824.961 917.888 2808.892 C 948.392 2779.975 988.052 2774.864 993.794 2799.762 C 999.084 2822.699 993.836 2848.656 973.835 2878.234 C 963.728 2893.18 949.656 2907.507 933.829 2919.365 C 910.056 2937.175 893.225 2940.093 880.511 2922.292 C 871.787 2905.608 876.249 2882.615 886.067 2857.423 Z " fill-rule="evenodd" fill="rgb(7,114,152)"/><path d=" M 527.917 2373.621 C 528.022 2373.617 528.108 2373.589 528.119 2373.618 C 528.178 2373.779 528.219 2373.955 528.266 2374.125 C 528.204 2374.156 528.094 2374.224 528.09 2374.213 C 528.031 2374.05 527.987 2373.876 527.917 2373.621 Z  M 529.883 2372.367 C 535.082 2362.589 526.509 2353.79 513.502 2351.115 C 500.494 2348.439 484.747 2366.798 486.915 2373.189 C 491.633 2387.102 524.684 2382.144 529.883 2372.367 Z " fill-rule="evenodd" fill="rgb(172,169,61)"/><path d=" M 343.399 2875.931 C 357.47 2882.707 366.744 2894.457 374.57 2905.979 C 381.771 2916.58 387.895 2926.245 384.537 2933.023 C 380.225 2941.725 363.09 2938.154 346.471 2924.1 C 331.955 2911.824 320.219 2898.851 311.294 2885.332 C 307.158 2879.067 309.417 2876.727 311.127 2873.725 C 317.858 2868.951 328.869 2868.934 343.399 2875.931 Z " fill-rule="evenodd" fill="rgb(172,169,61)"/><path d=" M 59.346 1873.868 C 59.465 1873.811 59.553 1873.732 59.577 1873.763 C 59.713 1873.937 59.833 1874.137 59.959 1874.328 C 59.902 1874.398 59.804 1874.538 59.794 1874.527 C 59.659 1874.35 59.535 1874.154 59.346 1873.868 Z  M 47.669 1889.055 C 54.87 1883.655 60.379 1876.922 61.069 1871.308 C 62.897 1856.417 49.372 1849.645 33.353 1852.789 C 17.334 1855.933 7.048 1886.888 12.224 1893.837 C 19.245 1903.263 35.768 1897.979 47.669 1889.055 Z " fill-rule="evenodd" fill="rgb(172,169,61)"/><g><path d=" M 1221.222 2457.55 C 1216.867 2447.037 1203.552 2434.819 1192.908 2433.452 C 1169.601 2430.459 1147.75 2451.183 1148.479 2469.798 C 1149.087 2485.322 1164.475 2494.433 1188.8 2493.671 C 1202.84 2493.232 1226.38 2470.001 1221.222 2457.55 Z " fill-rule="evenodd" fill="rgb(7,114,152)"/></g></g><path d=" M 1131.993 2636.759 C 1160.641 2663.168 1178.528 2664.144 1247.279 2621.326 C 1316.029 2578.508 1322.813 2409.507 1258.956 2443.302 C 1211.977 2468.167 1198.824 2520.886 1157.439 2553.336 C 1139.619 2567.308 1100.837 2608.039 1131.993 2636.759 Z " fill-rule="evenodd" fill="rgb(172,169,61)"/></g></g></g></svg>